<svg width="128" height="68" viewBox="0 0 128 68" fill="none" xmlns="http://www.w3.org/2000/svg">
<g filter="url(#filter0_di_62_22)">
<rect x="4" width="120" height="60" rx="30" fill="#D93838"/>
</g>
<path d="M14 32L43.25 16.4115V47.5885L14 32Z" fill="#FDFDFD"/>
<path d="M55.8224 39H52.4219L56.8388 25.9091H61.0511L65.468 39H62.0675L58.9929 29.2074H58.8906L55.8224 39ZM55.3686 33.848H62.4766V36.2514H55.3686V33.848ZM64.8145 28.4787V25.9091H75.8791V28.4787H71.9096V39H68.7903V28.4787H64.8145ZM77.4244 39V25.9091H82.832C83.8121 25.9091 84.658 26.0859 85.3697 26.4396C86.0856 26.7891 86.6374 27.2919 87.0252 27.9482C87.413 28.6001 87.6069 29.3736 87.6069 30.2685C87.6069 31.1761 87.4087 31.9474 87.0124 32.5824C86.6161 33.2131 86.0536 33.6946 85.3249 34.027C84.5962 34.3551 83.7333 34.5192 82.7362 34.5192H79.3164V32.0263H82.1481C82.6254 32.0263 83.0238 31.9645 83.3434 31.8409C83.6673 31.7131 83.9123 31.5213 84.0785 31.2656C84.2447 31.0057 84.3278 30.6733 84.3278 30.2685C84.3278 29.8636 84.2447 29.5291 84.0785 29.2649C83.9123 28.9964 83.6673 28.7962 83.3434 28.6641C83.0195 28.5277 82.6211 28.4595 82.1481 28.4595H80.5884V39H77.4244ZM84.7944 33.017L88.0543 39H84.6026L81.4066 33.017H84.7944ZM92.174 39H88.7734L93.1903 25.9091H97.4027L101.82 39H98.419L95.3445 29.2074H95.2422L92.174 39ZM91.7202 33.848H98.8281V36.2514H91.7202V33.848ZM109.901 29.8338C109.858 29.3651 109.669 29.0007 109.332 28.7408C108.999 28.4766 108.524 28.3445 107.906 28.3445C107.497 28.3445 107.156 28.3977 106.884 28.5043C106.611 28.6108 106.406 28.7578 106.27 28.9453C106.134 29.1286 106.063 29.3395 106.059 29.5781C106.051 29.7741 106.089 29.9467 106.174 30.0959C106.264 30.245 106.392 30.3771 106.558 30.4922C106.728 30.603 106.933 30.701 107.171 30.7862C107.41 30.8714 107.678 30.946 107.977 31.0099L109.102 31.2656C109.749 31.4062 110.32 31.5938 110.815 31.8281C111.313 32.0625 111.731 32.3416 112.068 32.6655C112.409 32.9893 112.666 33.3622 112.841 33.7841C113.016 34.206 113.105 34.679 113.11 35.2031C113.105 36.0298 112.896 36.7393 112.483 37.3317C112.07 37.924 111.475 38.3778 110.7 38.6932C109.928 39.0085 108.997 39.1662 107.906 39.1662C106.811 39.1662 105.857 39.0021 105.043 38.674C104.229 38.3459 103.596 37.8473 103.144 37.1783C102.693 36.5092 102.46 35.6634 102.448 34.6406H105.477C105.503 35.0625 105.616 35.4141 105.816 35.6953C106.017 35.9766 106.291 36.1896 106.641 36.3345C106.994 36.4794 107.404 36.5518 107.868 36.5518C108.294 36.5518 108.656 36.4943 108.955 36.3793C109.257 36.2642 109.49 36.1044 109.651 35.8999C109.813 35.6953 109.896 35.4609 109.901 35.1967C109.896 34.9496 109.82 34.7386 109.671 34.5639C109.521 34.3849 109.291 34.2315 108.98 34.1037C108.673 33.9716 108.281 33.8501 107.804 33.7393L106.436 33.4197C105.303 33.1598 104.41 32.7401 103.758 32.1605C103.106 31.5767 102.782 30.7884 102.786 29.7955C102.782 28.9858 102.999 28.2763 103.438 27.6669C103.877 27.0575 104.485 26.5824 105.26 26.2415C106.036 25.9006 106.92 25.7301 107.913 25.7301C108.927 25.7301 109.807 25.9027 110.553 26.2479C111.303 26.5888 111.884 27.0682 112.298 27.6861C112.711 28.304 112.922 29.0199 112.931 29.8338H109.901Z" fill="#FEFAFA"/>
<defs>
<filter id="filter0_di_62_22" x="0" y="0" width="128" height="68" filterUnits="userSpaceOnUse" color-interpolation-filters="sRGB">
<feFlood flood-opacity="0" result="BackgroundImageFix"/>
<feColorMatrix in="SourceAlpha" type="matrix" values="0 0 0 0 0 0 0 0 0 0 0 0 0 0 0 0 0 0 127 0" result="hardAlpha"/>
<feOffset dy="4"/>
<feGaussianBlur stdDeviation="2"/>
<feComposite in2="hardAlpha" operator="out"/>
<feColorMatrix type="matrix" values="0 0 0 0 0 0 0 0 0 0 0 0 0 0 0 0 0 0 0.25 0"/>
<feBlend mode="normal" in2="BackgroundImageFix" result="effect1_dropShadow_62_22"/>
<feBlend mode="normal" in="SourceGraphic" in2="effect1_dropShadow_62_22" result="shape"/>
<feColorMatrix in="SourceAlpha" type="matrix" values="0 0 0 0 0 0 0 0 0 0 0 0 0 0 0 0 0 0 127 0" result="hardAlpha"/>
<feOffset dx="1" dy="1"/>
<feGaussianBlur stdDeviation="0.5"/>
<feComposite in2="hardAlpha" operator="arithmetic" k2="-1" k3="1"/>
<feColorMatrix type="matrix" values="0 0 0 0 0 0 0 0 0 0 0 0 0 0 0 0 0 0 0.25 0"/>
<feBlend mode="normal" in2="shape" result="effect2_innerShadow_62_22"/>
</filter>
</defs>
</svg>
