<svg width="42" height="42" viewBox="0 0 42 42" fill="none" xmlns="http://www.w3.org/2000/svg">
<path d="M37.9507 8.03225L16.7199 30.9343L9.27971 33.0494L11.5646 26.1989L32.8172 3.27336C34.1313 1.85578 36.3458 1.77191 37.7634 3.08604C39.181 4.40017 39.2648 6.61466 37.9507 8.03225Z" fill="#D9D9D9" stroke="black"/>
<line x1="10.9524" y1="26.5897" x2="16.0968" y2="31.7409" stroke="black"/>
<path d="M20 10H2V40H32V21.5" stroke="#161716" stroke-width="4"/>
<path d="M33.2795 3.5913C34.3986 2.40736 36.2646 2.35208 37.4519 3.46768V3.46768C38.6288 4.57363 38.7002 6.41948 37.6123 7.61307L35.7259 9.68261L31.3188 5.66558L33.2795 3.5913Z" fill="#F50E0E"/>
<rect x="12.1204" y="26.6938" width="28.192" height="5.42298" transform="rotate(-47.1416 12.1204 26.6938)" fill="#F6FB00"/>
<path d="M10.1777 32.2998L11.7249 28.5175L14.0889 31.1157L10.1777 32.2998Z" fill="#957625"/>
<line x1="33.7542" y1="4.34361" x2="36.8365" y2="7.259" stroke="white"/>
<line x1="32.7824" y1="5.37105" x2="35.8647" y2="8.28643" stroke="white"/>
</svg>
