<svg width="100" height="60" viewBox="0 0 100 60" fill="none" xmlns="http://www.w3.org/2000/svg">
<path d="M72.8396 29.3407L53.5196 15.5688C51.7828 14.3308 49.4519 14.3308 47.7151 15.5688L28.3952 29.3407V57C28.3952 58.6569 29.7383 60 31.3952 60H35.8026H43.6332V50.7692C43.6332 50.4518 43.6734 50.1357 43.7528 49.8284V49.8284C45.6664 42.4192 56.1781 42.4221 58.3098 49.7716V49.7716C58.4092 50.1142 58.4605 50.4723 58.4605 50.829V60H65.4322H69.8396C71.4965 60 72.8396 58.6569 72.8396 57V29.3407Z" fill="black"/>
<rect width="7.40741" height="24" transform="matrix(-1 0 0 1 40.7407 3)" fill="black"/>
<path d="M51.8442 1.43745C50.76 0.592339 49.24 0.59234 48.1558 1.43745L13.5835 28.3838C11.3318 30.1389 12.5729 33.75 15.4278 33.75H84.5722C87.4271 33.75 88.6682 30.1389 86.4165 28.3838L51.8442 1.43745Z" fill="black"/>
</svg>
