<svg width="30" height="32" viewBox="0 0 30 32" fill="none" xmlns="http://www.w3.org/2000/svg">
<circle cx="15" cy="16" r="15" fill="#38991d"/>
<path d="M13.6778 5.64264C13.8807 4.5539 15.4403 4.55347 15.6438 5.6421L16.9599 12.6821C17.032 13.0675 17.3227 13.3753 17.7033 13.4692L24.3967 15.1208C25.4103 15.3709 25.4107 16.8117 24.3972 17.0624L17.7048 18.7177C17.3242 18.8118 17.0337 19.1197 16.9618 19.5052L15.6497 26.5459C15.4468 27.6347 13.8871 27.6351 13.6836 26.5465L12.3675 19.5065C12.2955 19.121 12.0048 18.8133 11.6241 18.7193L4.9308 17.0678C3.91717 16.8177 3.91678 15.3768 4.93026 15.1262L11.6227 13.4709C12.0033 13.3768 12.2938 13.0688 12.3656 12.6834L13.6778 5.64264Z" fill="#F3F4FD"/>
</svg>
