<svg width="20" height="20" viewBox="0 0 20 20" fill="none" xmlns="http://www.w3.org/2000/svg">
<path d="M20 10C20 15.5228 15.5228 20 10 20C4.47715 20 0 15.5228 0 10C0 4.47715 4.47715 0 10 0C15.5228 0 20 4.47715 20 10ZM1.63209 10C1.63209 14.6215 5.37853 18.3679 10 18.3679C14.6215 18.3679 18.3679 14.6215 18.3679 10C18.3679 5.37853 14.6215 1.63209 10 1.63209C5.37853 1.63209 1.63209 5.37853 1.63209 10Z" fill="#37D21E"/>
<g filter="url(#filter0_d_53_14)">
<rect x="9" y="3" width="2" height="14" rx="1" fill="#37D21E"/>
<rect x="3" y="11" width="2" height="14" rx="1" transform="rotate(-90 3 11)" fill="#37D21E"/>
</g>
<defs>
<filter id="filter0_d_53_14" x="2" y="2" width="18" height="18" filterUnits="userSpaceOnUse" color-interpolation-filters="sRGB">
<feFlood flood-opacity="0" result="BackgroundImageFix"/>
<feColorMatrix in="SourceAlpha" type="matrix" values="0 0 0 0 0 0 0 0 0 0 0 0 0 0 0 0 0 0 127 0" result="hardAlpha"/>
<feOffset dx="1" dy="1"/>
<feGaussianBlur stdDeviation="1"/>
<feComposite in2="hardAlpha" operator="out"/>
<feColorMatrix type="matrix" values="0 0 0 0 0 0 0 0 0 0 0 0 0 0 0 0 0 0 0.25 0"/>
<feBlend mode="normal" in2="BackgroundImageFix" result="effect1_dropShadow_53_14"/>
<feBlend mode="normal" in="SourceGraphic" in2="effect1_dropShadow_53_14" result="shape"/>
</filter>
</defs>
</svg>
