<svg width="30" height="32" viewBox="0 0 30 32" fill="none" xmlns="http://www.w3.org/2000/svg">
<path d="M2.7195 8.52466C2.82724 8.07482 3.22944 7.75758 3.69199 7.75758H26.308C26.7706 7.75758 27.1728 8.07482 27.2805 8.52466L29.1835 16.4699C29.7121 18.6767 29.4744 20.9976 28.5094 23.0514L24.5752 31.4252C24.4104 31.776 24.0578 32 23.6702 32H6.32984C5.94225 32 5.58956 31.776 5.42475 31.4252L1.49057 23.0514C0.525638 20.9976 0.28793 18.6767 0.816493 16.4699L2.7195 8.52466Z" fill="#FF0000"/>
<rect x="7.74191" y="10.6667" width="2.90323" height="15.5151" rx="1.45161" fill="#D9D9D9"/>
<rect x="13.5484" y="10.6667" width="2.90323" height="15.5151" rx="1.45161" fill="#D9D9D9"/>
<rect x="19.3548" y="10.6667" width="2.90323" height="15.5151" rx="1.45161" fill="#D9D9D9"/>
<path d="M2.90324 5.4044C2.98712 3.79996 4.35576 2.56757 5.96019 2.65179L26.2433 3.71646C27.8477 3.80067 29.0804 5.16961 28.9965 6.77405V6.77405L2.90324 5.4044V5.4044Z" fill="#FF0000"/>
<path d="M10.8861 0.998636C10.9149 0.447105 11.3854 0.0234685 11.9369 0.0524183L20.5703 0.505586C21.1218 0.534536 21.5455 1.00511 21.5167 1.55664L21.417 3.46311L19.9674 3.38702L20.0172 2.43378C20.0317 2.15802 19.8198 1.92273 19.544 1.90826L16.1777 1.73156L12.8113 1.55485C12.5356 1.54038 12.3003 1.7522 12.2859 2.02796L12.2361 2.9812L10.7864 2.90511L10.8861 0.998636Z" fill="#FF0000"/>
</svg>
