<svg width="30" height="32" viewBox="0 0 30 32" fill="none" xmlns="http://www.w3.org/2000/svg">
<path d="M1.25562 8.12717C1.17897 7.5293 1.64474 7 2.2475 7H27.7525C28.3553 7 28.821 7.52929 28.7444 8.12716L25.9076 30.2543C25.7796 31.2524 24.93 32 23.9238 32H6.0762C5.06996 32 4.2204 31.2524 4.09244 30.2543L1.25562 8.12717Z" fill="#FF0000"/>
<rect x="6.66666" y="10" width="3.33333" height="16" rx="1.66667" fill="#D9D9D9"/>
<rect x="13.3333" y="10" width="3.33333" height="16" rx="1.66667" fill="#D9D9D9"/>
<rect x="20" y="10" width="3.33333" height="16" rx="1.66667" fill="#D9D9D9"/>
<path d="M0 6C0 4.34315 1.34315 3 3 3H27C28.6569 3 30 4.34315 30 6V6H0V6Z" fill="#FF0000"/>
<path d="M8.88889 1C8.88889 0.447715 9.3366 0 9.88889 0H20.1111C20.6634 0 21.1111 0.447715 21.1111 1V3H19.4444V2C19.4444 1.72386 19.2206 1.5 18.9444 1.5H15H11.0556C10.7794 1.5 10.5556 1.72386 10.5556 2V3H8.88889V1Z" fill="#FF0000"/>
</svg>
