<svg width="64" height="46" viewBox="0 0 64 46" fill="none" xmlns="http://www.w3.org/2000/svg">
<path d="M21.5406 37.9525C20.2807 37.9525 19.2593 36.9312 19.2593 35.6713C19.2593 34.4114 20.2807 33.3901 21.5406 33.3901L52.2374 33.3901C53.4973 33.3901 54.5186 34.4114 54.5186 35.6713C54.5186 36.9312 53.4973 37.9525 52.2374 37.9525L21.5406 37.9525Z" fill="#FBEBEB"/>
<path d="M58.3703 39.695C58.3703 43.1772 55.5846 46 52.1481 46C48.7117 46 45.9259 43.1772 45.9259 39.695C45.9259 36.2129 48.7117 33.3901 52.1481 33.3901C55.5846 33.3901 58.3703 36.2129 58.3703 39.695ZM50.4978 39.695C50.4978 40.6186 51.2367 41.3674 52.1481 41.3674C53.0596 41.3674 53.7985 40.6186 53.7985 39.695C53.7985 38.7714 53.0596 38.0227 52.1481 38.0227C51.2367 38.0227 50.4978 38.7714 50.4978 39.695Z" fill="#F9ECEC"/>
<path d="M28.1482 39.695C28.1482 43.1772 25.3624 46 21.926 46C18.4895 46 15.7037 43.1772 15.7037 39.695C15.7037 36.2129 18.4895 33.3901 21.926 33.3901C25.3624 33.3901 28.1482 36.2129 28.1482 39.695ZM20.2756 39.695C20.2756 40.6186 21.0145 41.3674 21.926 41.3674C22.8374 41.3674 23.5763 40.6186 23.5763 39.695C23.5763 38.7714 22.8374 38.0227 21.926 38.0227C21.0145 38.0227 20.2756 38.7714 20.2756 39.695Z" fill="#F9ECEC"/>
<path d="M23.8877 27.9575L19.0203 10.9635H41.3218H60.2382L53.0993 27.9575H23.8877Z" stroke="#F7E7E7" stroke-width="5"/>
<path d="M11.3762 2.36213C11.308 2.06649 11.3504 1.75656 11.4956 1.4909C11.7149 1.08957 12.1384 0.842389 12.5972 0.84796L13.4609 0.858449C14.6968 0.873456 15.7658 1.72912 16.05 2.93068L23.5358 34.5847C23.8289 35.8242 23.0569 37.0611 21.8146 37.3422C20.5769 37.6223 19.342 36.847 19.0564 35.6105L11.3762 2.36213Z" fill="#FBEBEB"/>
<rect y="5.53094" width="4.69206" height="15.7037" rx="2.34603" transform="rotate(-90 0 5.53094)" fill="#FBEBEB"/>
<path d="M20.3964 20.2802L19.8737 17.7611H59.3704L58.2205 20.2802H20.3964Z" fill="#FAF7F7" stroke="#F7E7E7"/>
<rect x="42.0741" y="8.75677" width="1.04918" height="21.7008" fill="#FBEBEB"/>
<path d="M51.3747 8.4568L52.4064 8.26122L50.2276 30.1495L49.1851 30.3471L51.3747 8.4568Z" fill="#FBEBEB"/>
<rect x="33.4814" y="8.75677" width="1.04918" height="21.7008" fill="#FBEBEB"/>
<path d="M24.973 8.66742L26.0421 8.84947L28.2612 30.4393L27.1902 30.257L24.973 8.66742Z" fill="#FBEBEB"/>
</svg>
