<svg width="129" height="86" viewBox="0 0 129 86" fill="none" xmlns="http://www.w3.org/2000/svg">
<path d="M76.3571 80.9494V34.9765L79.1071 33.1981L83.4285 32.6429L87.75 33.1981L90.5 34.9765V80.9494L87.3571 82.8927L83.4285 83.1704L78.7143 82.6151L76.3571 80.9494Z" fill="#1164E1" fill-opacity="0.7" stroke="#15E111"/>
<path d="M30.5457 79.8796L41.8424 34.2275L44.9876 32.8018L49.3798 32.7852L53.4992 33.8712L55.7704 35.9775L44.4737 81.6296L40.9011 83.1705L36.964 82.9601L32.4578 81.8254L30.5457 79.8796Z" fill="#1164E1" fill-opacity="0.7" stroke="#15E111"/>
<path d="M58.2857 80.5694V26.7328L61.0357 24.6502L65.3571 24L69.6786 24.6502L72.4286 26.7328V80.5694L69.2857 82.8452L65.3571 83.1703L60.6428 82.5201L58.2857 80.5694Z" fill="#1164E1" fill-opacity="0.7" stroke="#15E111"/>
<g filter="url(#filter0_i_1_16)">
<path d="M27.625 24H23.5852V10.9091H27.804C29.0739 10.9091 30.1605 11.1712 31.0639 11.6953C31.9673 12.2152 32.6598 12.9631 33.1413 13.9389C33.6229 14.9105 33.8636 16.0739 33.8636 17.429C33.8636 18.7926 33.6207 19.9666 33.1349 20.951C32.6491 21.9311 31.9418 22.6854 31.0128 23.2138C30.0838 23.7379 28.9545 24 27.625 24ZM25.1705 22.5938H27.5227C28.6051 22.5938 29.5021 22.3849 30.2138 21.9673C30.9254 21.5497 31.456 20.9553 31.8054 20.1839C32.1548 19.4126 32.3295 18.4943 32.3295 17.429C32.3295 16.3722 32.157 15.4624 31.8118 14.6996C31.4666 13.9325 30.951 13.3445 30.2649 12.9354C29.5788 12.522 28.7244 12.3153 27.7017 12.3153H25.1705V22.5938ZM36.4444 24H34.7825L39.5893 10.9091H41.2257L46.0325 24H44.3706L40.4586 12.9801H40.3564L36.4444 24ZM37.0581 18.8864H43.7569V20.2926H37.0581V18.8864ZM48.0716 24V10.9091H52.6483C53.5602 10.9091 54.3123 11.0668 54.9047 11.3821C55.497 11.6932 55.938 12.1129 56.2278 12.6413C56.5176 13.1655 56.6625 13.7472 56.6625 14.3864C56.6625 14.9489 56.5623 15.4134 56.362 15.7798C56.166 16.1463 55.9061 16.4361 55.5822 16.6491C55.2626 16.8622 54.9153 17.0199 54.5403 17.1222V17.25C54.9409 17.2756 55.3436 17.4162 55.7484 17.6719C56.1532 17.9276 56.492 18.294 56.7647 18.7713C57.0375 19.2486 57.1738 19.8324 57.1738 20.5227C57.1738 21.179 57.0247 21.7692 56.7264 22.2933C56.4281 22.8175 55.9572 23.233 55.3137 23.5398C54.6703 23.8466 53.8329 24 52.8017 24H48.0716ZM49.6568 22.5938H52.8017C53.8372 22.5938 54.5723 22.3935 55.0069 21.9929C55.4458 21.5881 55.6653 21.098 55.6653 20.5227C55.6653 20.0795 55.5524 19.6705 55.3265 19.2955C55.1007 18.9162 54.7789 18.6136 54.3613 18.3878C53.9437 18.1577 53.4494 18.0426 52.8784 18.0426H49.6568V22.5938ZM49.6568 16.6619H52.5971C53.0744 16.6619 53.5048 16.5682 53.8883 16.3807C54.2761 16.1932 54.5829 15.929 54.8088 15.5881C55.0389 15.2472 55.1539 14.8466 55.1539 14.3864C55.1539 13.8111 54.9537 13.3232 54.5531 12.9226C54.1525 12.5178 53.5176 12.3153 52.6483 12.3153H49.6568V16.6619ZM70.824 17.4545C70.824 18.8352 70.5748 20.0284 70.0762 21.0341C69.5776 22.0398 68.8936 22.8153 68.0243 23.3608C67.155 23.9062 66.1621 24.179 65.0456 24.179C63.9292 24.179 62.9363 23.9062 62.0669 23.3608C61.1976 22.8153 60.5137 22.0398 60.0151 21.0341C59.5165 20.0284 59.2672 18.8352 59.2672 17.4545C59.2672 16.0739 59.5165 14.8807 60.0151 13.875C60.5137 12.8693 61.1976 12.0938 62.0669 11.5483C62.9363 11.0028 63.9292 10.7301 65.0456 10.7301C66.1621 10.7301 67.155 11.0028 68.0243 11.5483C68.8936 12.0938 69.5776 12.8693 70.0762 13.875C70.5748 14.8807 70.824 16.0739 70.824 17.4545ZM69.29 17.4545C69.29 16.321 69.1003 15.3643 68.7211 14.5845C68.3461 13.8047 67.8368 13.2145 67.1934 12.8139C66.5542 12.4134 65.8382 12.2131 65.0456 12.2131C64.253 12.2131 63.535 12.4134 62.8915 12.8139C62.2523 13.2145 61.7431 13.8047 61.3638 14.5845C60.9888 15.3643 60.8013 16.321 60.8013 17.4545C60.8013 18.5881 60.9888 19.5447 61.3638 20.3246C61.7431 21.1044 62.2523 21.6946 62.8915 22.0952C63.535 22.4957 64.253 22.696 65.0456 22.696C65.8382 22.696 66.5542 22.4957 67.1934 22.0952C67.8368 21.6946 68.3461 21.1044 68.7211 20.3246C69.1003 19.5447 69.29 18.5881 69.29 17.4545ZM84.535 17.4545C84.535 18.8352 84.2857 20.0284 83.7871 21.0341C83.2885 22.0398 82.6046 22.8153 81.7353 23.3608C80.8659 23.9062 79.873 24.179 78.7566 24.179C77.6401 24.179 76.6472 23.9062 75.7779 23.3608C74.9086 22.8153 74.2246 22.0398 73.726 21.0341C73.2275 20.0284 72.9782 18.8352 72.9782 17.4545C72.9782 16.0739 73.2275 14.8807 73.726 13.875C74.2246 12.8693 74.9086 12.0938 75.7779 11.5483C76.6472 11.0028 77.6401 10.7301 78.7566 10.7301C79.873 10.7301 80.8659 11.0028 81.7353 11.5483C82.6046 12.0938 83.2885 12.8693 83.7871 13.875C84.2857 14.8807 84.535 16.0739 84.535 17.4545ZM83.0009 17.4545C83.0009 16.321 82.8113 15.3643 82.432 14.5845C82.057 13.8047 81.5478 13.2145 80.9043 12.8139C80.2651 12.4134 79.5492 12.2131 78.7566 12.2131C77.964 12.2131 77.2459 12.4134 76.6025 12.8139C75.9632 13.2145 75.454 13.8047 75.0748 14.5845C74.6998 15.3643 74.5123 16.321 74.5123 17.4545C74.5123 18.5881 74.6998 19.5447 75.0748 20.3246C75.454 21.1044 75.9632 21.6946 76.6025 22.0952C77.2459 22.4957 77.964 22.696 78.7566 22.696C79.5492 22.696 80.2651 22.4957 80.9043 22.0952C81.5478 21.6946 82.057 21.1044 82.432 20.3246C82.8113 19.5447 83.0009 18.5881 83.0009 17.4545ZM87.2005 24V10.9091H88.7857V17.4034H88.9391L94.8198 10.9091H96.8908L91.3936 16.8153L96.8908 24H94.9732L90.4221 17.9148L88.7857 19.7557V24H87.2005ZM106.102 14.1818C106.025 13.5341 105.714 13.0312 105.169 12.6733C104.623 12.3153 103.954 12.1364 103.161 12.1364C102.582 12.1364 102.075 12.2301 101.64 12.4176C101.21 12.6051 100.873 12.8629 100.63 13.1911C100.392 13.5192 100.272 13.892 100.272 14.3097C100.272 14.6591 100.355 14.9595 100.521 15.2109C100.692 15.4581 100.909 15.6648 101.173 15.831C101.438 15.9929 101.715 16.1271 102.004 16.2337C102.294 16.3359 102.561 16.419 102.803 16.483L104.133 16.8409C104.474 16.9304 104.853 17.054 105.271 17.2116C105.693 17.3693 106.095 17.5845 106.479 17.8572C106.867 18.1257 107.186 18.4709 107.438 18.8928C107.689 19.3146 107.815 19.8324 107.815 20.446C107.815 21.1534 107.629 21.7926 107.259 22.3636C106.892 22.9347 106.355 23.3885 105.648 23.7251C104.945 24.0618 104.09 24.2301 103.085 24.2301C102.147 24.2301 101.335 24.0788 100.649 23.7763C99.9675 23.4737 99.4306 23.0518 99.0385 22.5107C98.6507 21.9695 98.4313 21.3409 98.3801 20.625H100.017C100.059 21.1193 100.225 21.5284 100.515 21.8523C100.809 22.1719 101.18 22.4105 101.627 22.5682C102.079 22.7216 102.565 22.7983 103.085 22.7983C103.69 22.7983 104.233 22.7003 104.715 22.5043C105.196 22.304 105.578 22.027 105.859 21.6733C106.14 21.3153 106.281 20.8977 106.281 20.4205C106.281 19.9858 106.159 19.6321 105.916 19.3594C105.673 19.0866 105.354 18.8651 104.958 18.6946C104.561 18.5241 104.133 18.375 103.673 18.2472L102.062 17.7869C101.039 17.4929 100.23 17.0732 99.633 16.5277C99.0364 15.9822 98.7381 15.2685 98.7381 14.3864C98.7381 13.6534 98.9363 13.0142 99.3326 12.4688C99.7331 11.919 100.27 11.4929 100.943 11.1903C101.621 10.8835 102.377 10.7301 103.213 10.7301C104.056 10.7301 104.806 10.8814 105.463 11.1839C106.119 11.4822 106.639 11.8913 107.022 12.4112C107.41 12.9311 107.615 13.5213 107.636 14.1818H106.102Z" fill="#0F386A"/>
</g>
<path d="M23.5852 24H22.5852V25H23.5852V24ZM23.5852 10.9091V9.90909H22.5852V10.9091H23.5852ZM31.0639 11.6953L30.5621 12.5603L30.5651 12.562L31.0639 11.6953ZM33.1413 13.9389L32.2446 14.3814L32.2453 14.383L33.1413 13.9389ZM33.1349 20.951L34.0309 21.3951L34.0317 21.3935L33.1349 20.951ZM31.0128 23.2138L31.5042 24.0847L31.5072 24.083L31.0128 23.2138ZM25.1705 22.5938H24.1705V23.5938H25.1705V22.5938ZM31.8118 14.6996L30.8999 15.1099L30.9007 15.1118L31.8118 14.6996ZM30.2649 12.9354L29.7488 13.7919L29.7528 13.7943L30.2649 12.9354ZM25.1705 12.3153V11.3153H24.1705V12.3153H25.1705ZM27.625 23H23.5852V25H27.625V23ZM24.5852 24V10.9091H22.5852V24H24.5852ZM23.5852 11.9091H27.804V9.90909H23.5852V11.9091ZM27.804 11.9091C28.9355 11.9091 29.8409 12.1419 30.5621 12.5603L31.5658 10.8304C30.4801 10.2005 29.2122 9.90909 27.804 9.90909V11.9091ZM30.5651 12.562C31.289 12.9786 31.8467 13.575 32.2446 14.3814L34.0381 13.4964C33.4729 12.3511 32.6457 11.4518 31.5627 10.8286L30.5651 12.562ZM32.2453 14.383C32.6435 15.1864 32.8636 16.1904 32.8636 17.429H34.8636C34.8636 15.9574 34.6022 14.6346 34.0373 13.4949L32.2453 14.383ZM32.8636 17.429C32.8636 18.6755 32.6416 19.691 32.2382 20.5084L34.0317 21.3935C34.5999 20.2423 34.8636 18.9097 34.8636 17.429H32.8636ZM32.239 20.5069C31.8395 21.3129 31.2698 21.9171 30.5184 22.3446L31.5072 24.083C32.6137 23.4536 33.4588 22.5493 34.0309 21.3951L32.239 20.5069ZM30.5214 22.3428C29.7751 22.7639 28.8243 23 27.625 23V25C29.0848 25 30.3926 24.7119 31.5042 24.0847L30.5214 22.3428ZM25.1705 23.5938H27.5227V21.5938H25.1705V23.5938ZM27.5227 23.5938C28.729 23.5938 29.8141 23.3613 30.7199 22.8298L29.7077 21.1049C29.1902 21.4085 28.4812 21.5938 27.5227 21.5938V23.5938ZM30.7199 22.8298C31.6146 22.3048 32.284 21.5508 32.7163 20.5966L30.8945 19.7713C30.6279 20.3597 30.2362 20.7947 29.7077 21.1049L30.7199 22.8298ZM32.7163 20.5966C33.1375 19.6667 33.3295 18.6011 33.3295 17.429H31.3295C31.3295 18.3876 31.1721 19.1585 30.8945 19.7713L32.7163 20.5966ZM33.3295 17.429C33.3295 16.2661 33.1399 15.2089 32.7229 14.2873L30.9007 15.1118C31.174 15.7158 31.3295 16.4783 31.3295 17.429H33.3295ZM32.7237 14.2892C32.2991 13.3457 31.6489 12.5963 30.7771 12.0765L29.7528 13.7943C30.2531 14.0926 30.6341 14.5194 30.8999 15.1099L32.7237 14.2892ZM30.781 12.0788C29.9015 11.549 28.8567 11.3153 27.7017 11.3153V13.3153C28.5922 13.3153 29.2562 13.4951 29.7489 13.7919L30.781 12.0788ZM27.7017 11.3153H25.1705V13.3153H27.7017V11.3153ZM24.1705 12.3153V22.5938H26.1705V12.3153H24.1705ZM36.4444 24V25H37.1506L37.3868 24.3345L36.4444 24ZM34.7825 24L33.8438 23.6553L33.35 25H34.7825V24ZM39.5893 10.9091V9.90909H38.8912L38.6506 10.5644L39.5893 10.9091ZM41.2257 10.9091L42.1644 10.5644L41.9238 9.90909H41.2257V10.9091ZM46.0325 24V25H47.465L46.9712 23.6553L46.0325 24ZM44.3706 24L43.4282 24.3345L43.6644 25H44.3706V24ZM40.4586 12.9801L41.401 12.6456L41.1648 11.9801H40.4586V12.9801ZM40.3564 12.9801V11.9801H39.6502L39.414 12.6456L40.3564 12.9801ZM37.0581 18.8864V17.8864H36.0581V18.8864H37.0581ZM43.7569 18.8864H44.7569V17.8864H43.7569V18.8864ZM43.7569 20.2926V21.2926H44.7569V20.2926H43.7569ZM37.0581 20.2926H36.0581V21.2926H37.0581V20.2926ZM36.4444 23H34.7825V25H36.4444V23ZM35.7212 24.3447L40.528 11.2538L38.6506 10.5644L33.8438 23.6553L35.7212 24.3447ZM39.5893 11.9091H41.2257V9.90909H39.5893V11.9091ZM40.287 11.2538L45.0938 24.3447L46.9712 23.6553L42.1644 10.5644L40.287 11.2538ZM46.0325 23H44.3706V25H46.0325V23ZM45.3129 23.6655L41.401 12.6456L39.5162 13.3146L43.4282 24.3345L45.3129 23.6655ZM40.4586 11.9801H40.3564V13.9801H40.4586V11.9801ZM39.414 12.6456L35.502 23.6655L37.3868 24.3345L41.2987 13.3146L39.414 12.6456ZM37.0581 19.8864H43.7569V17.8864H37.0581V19.8864ZM42.7569 18.8864V20.2926H44.7569V18.8864H42.7569ZM43.7569 19.2926H37.0581V21.2926H43.7569V19.2926ZM38.0581 20.2926V18.8864H36.0581V20.2926H38.0581ZM48.0716 24H47.0716V25H48.0716V24ZM48.0716 10.9091V9.90909H47.0716V10.9091H48.0716ZM54.9047 11.3821L54.4347 12.2648L54.4397 12.2674L54.9047 11.3821ZM56.2278 12.6413L55.351 13.1222L55.3526 13.1252L56.2278 12.6413ZM56.362 15.7798L55.4845 15.3002L55.4803 15.3082L56.362 15.7798ZM55.5822 16.6491L55.0326 15.8137L55.0275 15.8171L55.5822 16.6491ZM54.5403 17.1222L54.2772 16.1574L53.5403 16.3584V17.1222H54.5403ZM54.5403 17.25H53.5403V18.1882L54.4766 18.248L54.5403 17.25ZM55.7484 17.6719L55.2144 18.5174L55.7484 17.6719ZM56.7264 22.2933L57.5955 22.7879L56.7264 22.2933ZM55.3137 23.5398L54.8833 22.6371L55.3137 23.5398ZM49.6568 22.5938H48.6568V23.5938H49.6568V22.5938ZM55.0069 21.9929L55.6846 22.7283L55.6849 22.728L55.0069 21.9929ZM55.3265 19.2955L54.4673 19.8071L54.4699 19.8114L55.3265 19.2955ZM54.3613 18.3878L53.8787 19.2636L53.8856 19.2674L54.3613 18.3878ZM49.6568 18.0426V17.0426H48.6568V18.0426H49.6568ZM49.6568 16.6619H48.6568V17.6619H49.6568V16.6619ZM53.8883 16.3807L53.453 15.4804L53.4491 15.4823L53.8883 16.3807ZM54.8088 15.5881L53.9799 15.0286L53.9751 15.0358L54.8088 15.5881ZM54.5531 12.9226L53.8422 13.626L53.846 13.6297L54.5531 12.9226ZM49.6568 12.3153V11.3153H48.6568V12.3153H49.6568ZM49.0716 24V10.9091H47.0716V24H49.0716ZM48.0716 11.9091H52.6483V9.90909H48.0716V11.9091ZM52.6483 11.9091C53.4524 11.9091 54.0296 12.0491 54.4347 12.2648L55.3746 10.4994C54.595 10.0844 53.668 9.90909 52.6483 9.90909V11.9091ZM54.4397 12.2674C54.8779 12.4976 55.166 12.7849 55.351 13.1222L57.1046 12.1605C56.71 11.441 56.1161 10.8888 55.3696 10.4968L54.4397 12.2674ZM55.3526 13.1252C55.555 13.4912 55.6625 13.9047 55.6625 14.3864H57.6625C57.6625 13.5897 57.4801 12.8397 57.103 12.1575L55.3526 13.1252ZM55.6625 14.3864C55.6625 14.837 55.5814 15.123 55.4845 15.3003L57.2395 16.2594C57.5433 15.7037 57.6625 15.0607 57.6625 14.3864H55.6625ZM55.4803 15.3082C55.3571 15.5385 55.2071 15.6989 55.0326 15.8137L56.1318 17.4846C56.605 17.1733 56.975 16.7541 57.2438 16.2515L55.4803 15.3082ZM55.0275 15.8171C54.7984 15.9698 54.5498 16.0831 54.2772 16.1574L54.8034 18.0869C55.2809 17.9567 55.7268 17.7546 56.1369 17.4812L55.0275 15.8171ZM53.5403 17.1222V17.25H55.5403V17.1222H53.5403ZM54.4766 18.248C54.6807 18.261 54.9239 18.3339 55.2144 18.5174L56.2824 16.8264C55.7633 16.4985 55.2011 16.2901 54.604 16.252L54.4766 18.248ZM55.2144 18.5174C55.4617 18.6735 55.6928 18.911 55.8965 19.2674L57.633 18.2752C57.2912 17.677 56.8448 17.1816 56.2824 16.8264L55.2144 18.5174ZM55.8965 19.2674C56.0634 19.5596 56.1738 19.9625 56.1738 20.5227H58.1738C58.1738 19.7022 58.0115 18.9376 57.633 18.2752L55.8965 19.2674ZM56.1738 20.5227C56.1738 21.0213 56.0623 21.4384 55.8573 21.7987L57.5955 22.7879C57.987 22.1 58.1738 21.3367 58.1738 20.5227H56.1738ZM55.8573 21.7987C55.6774 22.1147 55.3767 22.4019 54.8833 22.6371L55.7441 24.4424C56.5377 24.064 57.1788 23.5202 57.5955 22.7879L55.8573 21.7987ZM54.8833 22.6371C54.4206 22.8578 53.7455 23 52.8017 23V25C53.9203 25 54.92 24.8354 55.7441 24.4424L54.8833 22.6371ZM52.8017 23H48.0716V25H52.8017V23ZM49.6568 23.5938H52.8017V21.5938H49.6568V23.5938ZM52.8017 23.5938C53.9157 23.5938 54.9688 23.3879 55.6846 22.7283L54.3292 21.2575C54.1757 21.399 53.7586 21.5938 52.8017 21.5938V23.5938ZM55.6849 22.728C56.3203 22.1419 56.6653 21.389 56.6653 20.5227H54.6653C54.6653 20.807 54.5714 21.0342 54.3289 21.2578L55.6849 22.728ZM56.6653 20.5227C56.6653 19.9001 56.504 19.3123 56.1832 18.7795L54.4699 19.8114C54.6007 20.0286 54.6653 20.259 54.6653 20.5227H56.6653ZM56.1857 18.7838C55.8606 18.2378 55.4009 17.8131 54.837 17.5082L53.8856 19.2674C54.157 19.4141 54.3408 19.5946 54.4673 19.8071L56.1857 18.7838ZM54.8439 17.5119C54.2519 17.1857 53.5849 17.0426 52.8784 17.0426V19.0426C53.3139 19.0426 53.6356 19.1296 53.8787 19.2636L54.8439 17.5119ZM52.8784 17.0426H49.6568V19.0426H52.8784V17.0426ZM48.6568 18.0426V22.5938H50.6568V18.0426H48.6568ZM49.6568 17.6619H52.5971V15.6619H49.6568V17.6619ZM52.5971 17.6619C53.2085 17.6619 53.7918 17.541 54.3275 17.2791L53.4491 15.4823C53.2177 15.5954 52.9403 15.6619 52.5971 15.6619V17.6619ZM54.3236 17.281C54.864 17.0197 55.3121 16.639 55.6424 16.1404L53.9751 15.0358C53.8538 15.2189 53.6882 15.3667 53.453 15.4804L54.3236 17.281ZM55.6376 16.1475C55.9923 15.6221 56.1539 15.0214 56.1539 14.3864H54.1539C54.1539 14.6718 54.0855 14.8722 53.9799 15.0286L55.6376 16.1475ZM56.1539 14.3864C56.1539 13.5505 55.8515 12.8068 55.2602 12.2155L53.846 13.6297C54.0558 13.8395 54.1539 14.0717 54.1539 14.3864H56.1539ZM55.2639 12.2192C54.5966 11.5449 53.6465 11.3153 52.6483 11.3153V13.3153C53.3887 13.3153 53.7084 13.4907 53.8423 13.6259L55.2639 12.2192ZM52.6483 11.3153H49.6568V13.3153H52.6483V11.3153ZM48.6568 12.3153V16.6619H50.6568V12.3153H48.6568ZM70.0762 21.0341L69.1802 20.5899V20.5899L70.0762 21.0341ZM68.0243 23.3608L68.5558 24.2079L68.0243 23.3608ZM62.0669 23.3608L61.5354 24.2079H61.5354L62.0669 23.3608ZM60.0151 21.0341L60.911 20.5899L60.0151 21.0341ZM68.0243 11.5483L68.5558 10.7012L68.0243 11.5483ZM70.0762 13.875L69.1802 14.3192L70.0762 13.875ZM68.7211 14.5845L67.8198 15.0179L67.8218 15.0219L68.7211 14.5845ZM67.1934 12.8139L66.6623 13.6613L66.6649 13.6629L67.1934 12.8139ZM62.8915 12.8139L62.363 11.965L62.3605 11.9666L62.8915 12.8139ZM61.3638 14.5845L60.4645 14.1472L60.4626 14.1511L61.3638 14.5845ZM61.3638 20.3246L60.4626 20.7579L60.4645 20.7619L61.3638 20.3246ZM62.8915 22.0952L62.3605 22.9425L62.363 22.9441L62.8915 22.0952ZM67.1934 22.0952L66.6649 21.2462L66.6623 21.2478L67.1934 22.0952ZM68.7211 20.3246L67.8218 19.8872L67.8198 19.8912L68.7211 20.3246ZM69.824 17.4545C69.824 18.7159 69.5964 19.7504 69.1802 20.5899L70.9721 21.4783C71.5531 20.3064 71.824 18.9545 71.824 17.4545H69.824ZM69.1802 20.5899C68.7557 21.4463 68.1913 22.0755 67.4928 22.5137L68.5558 24.2079C69.596 23.5552 70.3995 22.6333 70.9721 21.4783L69.1802 20.5899ZM67.4928 22.5137C66.7967 22.9505 65.9912 23.179 65.0456 23.179V25.179C66.333 25.179 67.5133 24.862 68.5558 24.2079L67.4928 22.5137ZM65.0456 23.179C64.1 23.179 63.2945 22.9505 62.5984 22.5137L61.5354 24.2079C62.578 24.862 63.7583 25.179 65.0456 25.179V23.179ZM62.5984 22.5137C61.8999 22.0755 61.3356 21.4463 60.911 20.5899L59.1192 21.4783C59.6918 22.6333 60.4953 23.5552 61.5354 24.2079L62.5984 22.5137ZM60.911 20.5899C60.4948 19.7504 60.2672 18.7159 60.2672 17.4545H58.2672C58.2672 18.9545 58.5382 20.3064 59.1192 21.4783L60.911 20.5899ZM60.2672 17.4545C60.2672 16.1932 60.4948 15.1587 60.911 14.3192L59.1192 13.4308C58.5382 14.6027 58.2672 15.9546 58.2672 17.4545H60.2672ZM60.911 14.3192C61.3356 13.4628 61.8999 12.8336 62.5984 12.3954L61.5354 10.7012C60.4953 11.3539 59.6918 12.2758 59.1192 13.4308L60.911 14.3192ZM62.5984 12.3954C63.2945 11.9586 64.1 11.7301 65.0456 11.7301V9.73011C63.7583 9.73011 62.578 10.0471 61.5354 10.7012L62.5984 12.3954ZM65.0456 11.7301C65.9912 11.7301 66.7967 11.9586 67.4928 12.3954L68.5558 10.7012C67.5133 10.0471 66.333 9.73011 65.0456 9.73011V11.7301ZM67.4928 12.3954C68.1913 12.8336 68.7557 13.4628 69.1802 14.3192L70.9721 13.4308C70.3995 12.2758 69.596 11.3539 68.5558 10.7012L67.4928 12.3954ZM69.1802 14.3192C69.5964 15.1587 69.824 16.1932 69.824 17.4545H71.824C71.824 15.9546 71.5531 14.6027 70.9721 13.4308L69.1802 14.3192ZM70.29 17.4545C70.29 16.2142 70.083 15.0985 69.6203 14.1472L67.8218 15.0219C68.1176 15.6302 68.29 16.4278 68.29 17.4545H70.29ZM69.6223 14.1511C69.1769 13.2251 68.5484 12.4795 67.7218 11.965L66.6649 13.6629C67.1253 13.9495 67.5152 14.3843 67.8198 15.0179L69.6223 14.1511ZM67.7244 11.9666C66.9178 11.4611 66.0161 11.2131 65.0456 11.2131V13.2131C65.6604 13.2131 66.1906 13.3656 66.6623 13.6613L67.7244 11.9666ZM65.0456 11.2131C64.0752 11.2131 63.1725 11.4611 62.363 11.965L63.42 13.6629C63.8974 13.3657 64.4309 13.2131 65.0456 13.2131V11.2131ZM62.3605 11.9666C61.5399 12.4808 60.9132 13.2246 60.4645 14.1472L62.2631 15.0219C62.5729 14.3848 62.9647 13.9482 63.4225 13.6613L62.3605 11.9666ZM60.4626 14.1511C60.0057 15.1013 59.8013 16.2156 59.8013 17.4545H61.8013C61.8013 16.4264 61.972 15.6273 62.265 15.0179L60.4626 14.1511ZM59.8013 17.4545C59.8013 18.6935 60.0057 19.8077 60.4626 20.7579L62.265 19.8912C61.972 19.2817 61.8013 18.4826 61.8013 17.4545H59.8013ZM60.4645 20.7619C60.9132 21.6845 61.5399 22.4283 62.3605 22.9425L63.4225 21.2478C62.9647 20.9609 62.5729 20.5243 62.2631 19.8872L60.4645 20.7619ZM62.363 22.9441C63.1725 23.448 64.0752 23.696 65.0456 23.696V21.696C64.4309 21.696 63.8974 21.5434 63.42 21.2462L62.363 22.9441ZM65.0456 23.696C66.0161 23.696 66.9178 23.448 67.7244 22.9425L66.6623 21.2478C66.1906 21.5435 65.6604 21.696 65.0456 21.696V23.696ZM67.7218 22.9441C68.5484 22.4296 69.1769 21.684 69.6223 20.7579L67.8198 19.8912C67.5152 20.5248 67.1253 20.9596 66.6649 21.2462L67.7218 22.9441ZM69.6203 20.7619C70.083 19.8106 70.29 18.6949 70.29 17.4545H68.29C68.29 18.4813 68.1176 19.2789 67.8218 19.8872L69.6203 20.7619ZM83.7871 21.0341L82.8912 20.5899V20.5899L83.7871 21.0341ZM81.7353 23.3608L82.2668 24.2079L81.7353 23.3608ZM75.7779 23.3608L75.2464 24.2079H75.2464L75.7779 23.3608ZM73.726 21.0341L74.622 20.5899L73.726 21.0341ZM81.7353 11.5483L82.2668 10.7012L81.7353 11.5483ZM83.7871 13.875L82.8912 14.3192L83.7871 13.875ZM82.432 14.5845L81.5308 15.0179L81.5327 15.0219L82.432 14.5845ZM80.9043 12.8139L80.3733 13.6613L80.3758 13.6629L80.9043 12.8139ZM76.6025 12.8139L76.074 11.965L76.0714 11.9666L76.6025 12.8139ZM75.0748 14.5845L74.1755 14.1472L74.1735 14.1511L75.0748 14.5845ZM75.0748 20.3246L74.1735 20.7579L74.1755 20.7619L75.0748 20.3246ZM76.6025 22.0952L76.0714 22.9425L76.074 22.9441L76.6025 22.0952ZM80.9043 22.0952L80.3758 21.2462L80.3733 21.2478L80.9043 22.0952ZM82.432 20.3246L81.5327 19.8872L81.5308 19.8912L82.432 20.3246ZM83.535 17.4545C83.535 18.7159 83.3074 19.7504 82.8912 20.5899L84.683 21.4783C85.264 20.3064 85.535 18.9545 85.535 17.4545H83.535ZM82.8912 20.5899C82.4666 21.4463 81.9023 22.0755 81.2038 22.5137L82.2668 24.2079C83.3069 23.5552 84.1104 22.6333 84.683 21.4783L82.8912 20.5899ZM81.2038 22.5137C80.5077 22.9505 79.7022 23.179 78.7566 23.179V25.179C80.0439 25.179 81.2242 24.862 82.2668 24.2079L81.2038 22.5137ZM78.7566 23.179C77.811 23.179 77.0055 22.9505 76.3094 22.5137L75.2464 24.2079C76.2889 24.862 77.4692 25.179 78.7566 25.179V23.179ZM76.3094 22.5137C75.6109 22.0755 75.0465 21.4463 74.622 20.5899L72.8301 21.4783C73.4027 22.6333 74.2062 23.5552 75.2464 24.2079L76.3094 22.5137ZM74.622 20.5899C74.2058 19.7504 73.9782 18.7159 73.9782 17.4545H71.9782C71.9782 18.9545 72.2491 20.3064 72.8301 21.4783L74.622 20.5899ZM73.9782 17.4545C73.9782 16.1932 74.2058 15.1587 74.622 14.3192L72.8301 13.4308C72.2491 14.6027 71.9782 15.9546 71.9782 17.4545H73.9782ZM74.622 14.3192C75.0465 13.4628 75.6109 12.8336 76.3094 12.3954L75.2464 10.7012C74.2062 11.3539 73.4027 12.2758 72.8301 13.4308L74.622 14.3192ZM76.3094 12.3954C77.0055 11.9586 77.811 11.7301 78.7566 11.7301V9.73011C77.4692 9.73011 76.2889 10.0471 75.2464 10.7012L76.3094 12.3954ZM78.7566 11.7301C79.7022 11.7301 80.5077 11.9586 81.2038 12.3954L82.2668 10.7012C81.2242 10.0471 80.0439 9.73011 78.7566 9.73011V11.7301ZM81.2038 12.3954C81.9023 12.8336 82.4666 13.4628 82.8912 14.3192L84.683 13.4308C84.1104 12.2758 83.3069 11.3539 82.2668 10.7012L81.2038 12.3954ZM82.8912 14.3192C83.3074 15.1587 83.535 16.1932 83.535 17.4545H85.535C85.535 15.9546 85.264 14.6027 84.683 13.4308L82.8912 14.3192ZM84.0009 17.4545C84.0009 16.2142 83.7939 15.0985 83.3313 14.1472L81.5327 15.0219C81.8286 15.6302 82.0009 16.4278 82.0009 17.4545H84.0009ZM83.3332 14.1511C82.8879 13.2251 82.2593 12.4795 81.4328 11.965L80.3758 13.6629C80.8362 13.9495 81.2261 14.3843 81.5308 15.0179L83.3332 14.1511ZM81.4353 11.9666C80.6287 11.4611 79.727 11.2131 78.7566 11.2131V13.2131C79.3713 13.2131 79.9015 13.3656 80.3733 13.6613L81.4353 11.9666ZM78.7566 11.2131C77.7861 11.2131 76.8835 11.4611 76.074 11.965L77.1309 13.6629C77.6084 13.3657 78.1418 13.2131 78.7566 13.2131V11.2131ZM76.0714 11.9666C75.2509 12.4808 74.6241 13.2246 74.1755 14.1472L75.974 15.0219C76.2839 14.3848 76.6756 13.9482 77.1335 13.6613L76.0714 11.9666ZM74.1735 14.1511C73.7166 15.1013 73.5123 16.2156 73.5123 17.4545H75.5123C75.5123 16.4264 75.6829 15.6273 75.976 15.0179L74.1735 14.1511ZM73.5123 17.4545C73.5123 18.6935 73.7166 19.8077 74.1735 20.7579L75.976 19.8912C75.6829 19.2817 75.5123 18.4826 75.5123 17.4545H73.5123ZM74.1755 20.7619C74.6241 21.6845 75.2509 22.4283 76.0714 22.9425L77.1335 21.2478C76.6756 20.9609 76.2839 20.5243 75.974 19.8872L74.1755 20.7619ZM76.074 22.9441C76.8835 23.448 77.7861 23.696 78.7566 23.696V21.696C78.1418 21.696 77.6084 21.5434 77.1309 21.2462L76.074 22.9441ZM78.7566 23.696C79.727 23.696 80.6287 23.448 81.4353 22.9425L80.3733 21.2478C79.9015 21.5435 79.3713 21.696 78.7566 21.696V23.696ZM81.4328 22.9441C82.2593 22.4296 82.8879 21.684 83.3332 20.7579L81.5308 19.8912C81.2261 20.5248 80.8362 20.9596 80.3758 21.2462L81.4328 22.9441ZM83.3313 20.7619C83.7939 19.8106 84.0009 18.6949 84.0009 17.4545H82.0009C82.0009 18.4813 81.8286 19.2789 81.5327 19.8872L83.3313 20.7619ZM87.2005 24H86.2005V25H87.2005V24ZM87.2005 10.9091V9.90909H86.2005V10.9091H87.2005ZM88.7857 10.9091H89.7857V9.90909H88.7857V10.9091ZM88.7857 17.4034H87.7857V18.4034H88.7857V17.4034ZM88.9391 17.4034V18.4034H89.3826L89.6804 18.0746L88.9391 17.4034ZM94.8198 10.9091V9.90909H94.3762L94.0785 10.2379L94.8198 10.9091ZM96.8908 10.9091L97.6228 11.5904L99.1877 9.90909H96.8908V10.9091ZM91.3936 16.8153L90.6616 16.134L90.0862 16.7523L90.5994 17.423L91.3936 16.8153ZM96.8908 24V25H98.9151L97.685 23.3923L96.8908 24ZM94.9732 24L94.1724 24.5989L94.4724 25H94.9732V24ZM90.4221 17.9148L91.2229 17.3158L90.4889 16.3344L89.6746 17.2504L90.4221 17.9148ZM88.7857 19.7557L88.0383 19.0913L87.7857 19.3755V19.7557H88.7857ZM88.7857 24V25H89.7857V24H88.7857ZM88.2005 24V10.9091H86.2005V24H88.2005ZM87.2005 11.9091H88.7857V9.90909H87.2005V11.9091ZM87.7857 10.9091V17.4034H89.7857V10.9091H87.7857ZM88.7857 18.4034H88.9391V16.4034H88.7857V18.4034ZM89.6804 18.0746L95.561 11.5803L94.0785 10.2379L88.1978 16.7322L89.6804 18.0746ZM94.8198 11.9091H96.8908V9.90909H94.8198V11.9091ZM96.1588 10.2278L90.6616 16.134L92.1256 17.4966L97.6228 11.5904L96.1588 10.2278ZM90.5994 17.423L96.0966 24.6077L97.685 23.3923L92.1878 16.2077L90.5994 17.423ZM96.8908 23H94.9732V25H96.8908V23ZM95.774 23.4011L91.2229 17.3158L89.6212 18.5137L94.1724 24.5989L95.774 23.4011ZM89.6746 17.2504L88.0383 19.0913L89.5331 20.42L91.1695 18.5791L89.6746 17.2504ZM87.7857 19.7557V24H89.7857V19.7557H87.7857ZM88.7857 23H87.2005V25H88.7857V23ZM106.102 14.1818L105.109 14.2994L105.213 15.1818H106.102V14.1818ZM105.169 12.6733L104.62 13.5093L105.169 12.6733ZM101.64 12.4176L101.244 11.4994L101.241 11.5008L101.64 12.4176ZM100.63 13.1911L99.8264 12.5961L99.8214 12.6029L100.63 13.1911ZM100.521 15.2109L99.6873 15.7624L99.6927 15.7706L99.6983 15.7787L100.521 15.2109ZM101.173 15.831L100.641 16.6775L100.651 16.6836L101.173 15.831ZM102.004 16.2337L101.659 17.1723L101.672 17.1767L102.004 16.2337ZM102.803 16.483L103.063 15.5173L103.058 15.5159L102.803 16.483ZM104.133 16.8409L103.873 17.8065L103.879 17.8081L104.133 16.8409ZM105.271 17.2116L104.918 18.1472L104.921 18.1484L105.271 17.2116ZM106.479 17.8572L105.899 18.6723L105.91 18.6794L106.479 17.8572ZM107.438 18.8928L108.297 18.3808L107.438 18.8928ZM107.259 22.3636L106.42 21.8191L106.417 21.8235L107.259 22.3636ZM105.648 23.7251L105.218 22.8222L105.216 22.8232L105.648 23.7251ZM100.649 23.7763L100.244 24.6903L100.246 24.6913L100.649 23.7763ZM99.0385 22.5107L98.2257 23.0931L98.2287 23.0973L99.0385 22.5107ZM98.3801 20.625V19.625H97.3062L97.3827 20.6962L98.3801 20.625ZM100.017 20.625L101.013 20.5391L100.934 19.625H100.017V20.625ZM100.515 21.8523L99.7698 22.5191L99.7792 22.5293L100.515 21.8523ZM101.627 22.5682L101.295 23.5114L101.306 23.5151L101.627 22.5682ZM104.715 22.5043L105.092 23.4305L105.099 23.4276L104.715 22.5043ZM105.859 21.6733L106.642 22.2957L106.645 22.2911L105.859 21.6733ZM105.916 19.3594L106.663 18.6943L105.916 19.3594ZM104.958 18.6946L104.562 19.6132L104.958 18.6946ZM103.673 18.2472L103.398 19.2087L103.405 19.2107L103.673 18.2472ZM102.062 17.7869L101.786 18.748L101.787 18.7485L102.062 17.7869ZM99.633 16.5277L98.9582 17.2657L99.633 16.5277ZM99.3326 12.4688L98.5244 11.8798L98.5236 11.881L99.3326 12.4688ZM100.943 11.1903L101.353 12.1025L101.356 12.1013L100.943 11.1903ZM105.463 11.1839L105.044 12.0921L105.049 12.0943L105.463 11.1839ZM107.022 12.4112L106.217 13.0049L106.221 13.0091L107.022 12.4112ZM107.636 14.1818V15.1818H108.669L108.635 14.1496L107.636 14.1818ZM107.095 14.0642C106.983 13.123 106.51 12.3572 105.717 11.8372L104.62 13.5093C104.918 13.7053 105.067 13.9451 105.109 14.2994L107.095 14.0642ZM105.717 11.8372C104.977 11.3513 104.107 11.1364 103.161 11.1364V13.1364C103.801 13.1364 104.269 13.2794 104.62 13.5093L105.717 11.8372ZM103.161 11.1364C102.475 11.1364 101.828 11.2473 101.244 11.4994L102.036 13.3358C102.321 13.2129 102.688 13.1364 103.161 13.1364V11.1364ZM101.241 11.5008C100.674 11.7477 100.188 12.1071 99.8264 12.5961L101.434 13.786C101.558 13.6187 101.745 13.4625 102.039 13.3344L101.241 11.5008ZM99.8214 12.6029C99.4546 13.1072 99.2722 13.6873 99.2722 14.3097H101.272C101.272 14.0968 101.328 13.9311 101.439 13.7792L99.8214 12.6029ZM99.2722 14.3097C99.2722 14.8231 99.3965 15.3225 99.6873 15.7624L101.356 14.6595C101.314 14.5965 101.272 14.495 101.272 14.3097H99.2722ZM99.6983 15.7787C99.9488 16.1419 100.267 16.4419 100.641 16.6774L101.706 14.9845C101.552 14.8876 101.435 14.7743 101.345 14.6432L99.6983 15.7787ZM100.651 16.6836C100.971 16.8798 101.308 17.0429 101.659 17.1722L102.35 15.2951C102.122 15.2114 101.904 15.106 101.696 14.9784L100.651 16.6836ZM101.672 17.1767C101.982 17.2861 102.275 17.3778 102.549 17.45L103.058 15.5159C102.847 15.4602 102.607 15.3858 102.337 15.2907L101.672 17.1767ZM102.543 17.4486L103.873 17.8065L104.393 15.8753L103.063 15.5173L102.543 17.4486ZM103.879 17.8081C104.179 17.8868 104.524 17.9987 104.918 18.1472L105.624 16.2761C105.182 16.1092 104.769 15.974 104.387 15.8737L103.879 17.8081ZM104.921 18.1484C105.258 18.2743 105.583 18.4476 105.899 18.6722L107.058 17.0423C106.607 16.7214 106.128 16.4644 105.621 16.2749L104.921 18.1484ZM105.91 18.6794C106.175 18.863 106.397 19.1006 106.579 19.4047L108.297 18.3808C107.975 17.8412 107.558 17.3884 107.048 17.0351L105.91 18.6794ZM106.579 19.4047C106.717 19.6375 106.815 19.9681 106.815 20.446H108.815C108.815 19.6967 108.661 18.9918 108.297 18.3808L106.579 19.4047ZM106.815 20.446C106.815 20.9681 106.681 21.4167 106.42 21.8191L108.097 22.9082C108.578 22.1685 108.815 21.3387 108.815 20.446H106.815ZM106.417 21.8235C106.166 22.2145 105.784 22.5531 105.218 22.8222L106.078 24.6281C106.927 24.2239 107.618 23.6548 108.1 22.9038L106.417 21.8235ZM105.216 22.8232C104.681 23.0794 103.983 23.2301 103.085 23.2301V25.2301C104.198 25.2301 105.209 25.0442 106.08 24.6271L105.216 22.8232ZM103.085 23.2301C102.252 23.2301 101.584 23.0956 101.053 22.8613L100.246 24.6913C101.087 25.062 102.042 25.2301 103.085 25.2301V23.2301ZM101.055 22.8622C100.515 22.6227 100.125 22.3062 99.8484 21.924L98.2287 23.0973C98.7359 23.7975 99.4198 24.3247 100.244 24.6903L101.055 22.8622ZM99.8514 21.9282C99.5796 21.5488 99.4167 21.1004 99.3776 20.5538L97.3827 20.6962C97.4459 21.5814 97.7219 22.3901 98.2257 23.0931L99.8514 21.9282ZM98.3801 21.625H100.017V19.625H98.3801V21.625ZM99.0202 20.7109C99.0787 21.389 99.3157 22.0115 99.7699 22.5191L101.26 21.1855C101.135 21.0453 101.04 20.8496 101.013 20.5391L99.0202 20.7109ZM99.7792 22.5293C100.194 22.9802 100.708 23.3044 101.295 23.5113L101.96 21.625C101.652 21.5166 101.424 21.3636 101.251 21.1752L99.7792 22.5293ZM101.306 23.5151C101.87 23.7067 102.465 23.7983 103.085 23.7983V21.7983C102.664 21.7983 102.288 21.7365 101.949 21.6213L101.306 23.5151ZM103.085 23.7983C103.798 23.7983 104.472 23.6825 105.092 23.4305L104.338 21.5781C103.994 21.718 103.581 21.7983 103.085 21.7983V23.7983ZM105.099 23.4276C105.712 23.1724 106.24 22.801 106.642 22.2957L105.076 21.0509C104.915 21.253 104.68 21.4355 104.331 21.5809L105.099 23.4276ZM106.645 22.2911C107.072 21.748 107.281 21.1101 107.281 20.4205H105.281C105.281 20.6853 105.208 20.8827 105.073 21.0555L106.645 22.2911ZM107.281 20.4205C107.281 19.7897 107.099 19.1838 106.663 18.6943L105.17 20.0245C105.219 20.0804 105.281 20.1819 105.281 20.4205H107.281ZM106.663 18.6943C106.307 18.2943 105.859 17.9938 105.353 17.776L104.562 19.6132C104.849 19.7363 105.04 19.879 105.17 20.0245L106.663 18.6943ZM105.353 17.776C104.911 17.5859 104.44 17.4223 103.94 17.2836L103.405 19.2107C103.826 19.3277 104.212 19.4624 104.562 19.6132L105.353 17.776ZM103.947 17.2856L102.337 16.8254L101.787 18.7485L103.398 19.2087L103.947 17.2856ZM102.338 16.8259C101.419 16.5615 100.76 16.2035 100.308 15.7897L98.9582 17.2657C99.6988 17.9428 100.66 18.4243 101.786 18.748L102.338 16.8259ZM100.308 15.7897C99.9386 15.4521 99.7381 15.0163 99.7381 14.3864H97.7381C97.7381 15.5206 98.1342 16.5123 98.9582 17.2657L100.308 15.7897ZM99.7381 14.3864C99.7381 13.8452 99.8803 13.4161 100.142 13.0565L98.5236 11.881C97.9922 12.6123 97.7381 13.4616 97.7381 14.3864H99.7381ZM100.141 13.0577C100.43 12.6603 100.825 12.34 101.353 12.1025L100.533 10.2782C99.7155 10.6458 99.036 11.1777 98.5244 11.8798L100.141 13.0577ZM101.356 12.1013C101.889 11.86 102.502 11.7301 103.213 11.7301V9.73011C102.253 9.73011 101.353 9.90705 100.531 10.2794L101.356 12.1013ZM103.213 11.7301C103.936 11.7301 104.539 11.8594 105.044 12.0921L105.881 10.2758C105.073 9.90341 104.177 9.73011 103.213 9.73011V11.7301ZM105.049 12.0943C105.568 12.3304 105.946 12.6375 106.217 13.0049L107.827 11.8176C107.331 11.1452 106.669 10.6341 105.876 10.2736L105.049 12.0943ZM106.221 13.0091C106.484 13.3618 106.622 13.7538 106.636 14.2141L108.635 14.1496C108.608 13.2888 108.336 12.5004 107.824 11.8133L106.221 13.0091ZM107.636 13.1818H106.102V15.1818H107.636V13.1818Z" fill="#0F386A"/>
<path d="M17.7143 8C-3.45028 36.5209 -3.02483 53.2884 17.7143 84.456" stroke="#FBEBEB" stroke-width="3"/>
<path d="M111 84.4561C132.165 55.9351 131.739 39.1677 111 8.00001" stroke="#FBEBEB" stroke-width="3"/>
<defs>
<filter id="filter0_i_1_16" x="23.5852" y="10.7301" width="84.2296" height="17.5" filterUnits="userSpaceOnUse" color-interpolation-filters="sRGB">
<feFlood flood-opacity="0" result="BackgroundImageFix"/>
<feBlend mode="normal" in="SourceGraphic" in2="BackgroundImageFix" result="shape"/>
<feColorMatrix in="SourceAlpha" type="matrix" values="0 0 0 0 0 0 0 0 0 0 0 0 0 0 0 0 0 0 127 0" result="hardAlpha"/>
<feOffset dy="4"/>
<feGaussianBlur stdDeviation="2"/>
<feComposite in2="hardAlpha" operator="arithmetic" k2="-1" k3="1"/>
<feColorMatrix type="matrix" values="0 0 0 0 0 0 0 0 0 0 0 0 0 0 0 0 0 0 0.25 0"/>
<feBlend mode="normal" in2="shape" result="effect1_innerShadow_1_16"/>
</filter>
</defs>
</svg>
