<svg width="20" height="20" viewBox="0 0 20 20" fill="none" xmlns="http://www.w3.org/2000/svg">
<mask id="path-1-inside-1_1_32" fill="white">
<path d="M15.4479 7.72394C15.4479 11.9898 11.9898 15.4479 7.72394 15.4479C3.45813 15.4479 0 11.9898 0 7.72394C0 3.45813 3.45813 0 7.72394 0C11.9898 0 15.4479 3.45813 15.4479 7.72394ZM1.40457 7.72394C1.40457 11.214 4.23385 14.0433 7.72394 14.0433C11.214 14.0433 14.0433 11.214 14.0433 7.72394C14.0433 4.23385 11.214 1.40457 7.72394 1.40457C4.23385 1.40457 1.40457 4.23385 1.40457 7.72394Z"/>
</mask>
<path d="M15.4479 7.72394C15.4479 11.9898 11.9898 15.4479 7.72394 15.4479C3.45813 15.4479 0 11.9898 0 7.72394C0 3.45813 3.45813 0 7.72394 0C11.9898 0 15.4479 3.45813 15.4479 7.72394ZM1.40457 7.72394C1.40457 11.214 4.23385 14.0433 7.72394 14.0433C11.214 14.0433 14.0433 11.214 14.0433 7.72394C14.0433 4.23385 11.214 1.40457 7.72394 1.40457C4.23385 1.40457 1.40457 4.23385 1.40457 7.72394Z" fill="#FAF7F7" stroke="#0F386A" stroke-width="2" mask="url(#path-1-inside-1_1_32)"/>
<rect x="13.3194" y="14.3955" width="1.29282" height="6.33227" rx="0.646408" transform="rotate(-39.2893 13.3194 14.3955)" fill="#FAF7F7" stroke="#0F386A"/>
</svg>
